# xmcd
#
# Track frame offsets: 
#        183
#        16765
#        35580
#        50650
#        90773
#        120870
#        138930
#        153588
#        173498
#        203178
#        218813
#        230348
#
# Disc length: 3224 seconds
#
# Revision: 0
# Processed by: cddbd v1.5.2PL0 Copyright (c) Steve Scherf et al.
# Submitted via: ExactAudioCopy v0.95b3
#
DISCID=8d0c960c
DTITLE=Tonky Blues Band con Mick Taylor - Piedra Rodante
DYEAR=1993
DGENRE=Blues
TTITLE0=Killing Floor
TTITLE1=Blues Runs Down My Leg
TTITLE2=Tronco De Madrid
TTITLE3=Sky is Crying
TTITLE4=Steady Rolling Man
TTITLE5=I Can't Be Satisfied
TTITLE6=Jam De 4
TTITLE7=Good Morning Little Schoolgirl
TTITLE8=I'll Play The Blues For You
TTITLE9=Look Watcha Done
TTITLE10=Steppin' Out
TTITLE11=Tributo A Los Viejos
EXTD=
EXTT0=
EXTT1=
EXTT2=
EXTT3=
EXTT4=
EXTT5=
EXTT6=
EXTT7=
EXTT8=
EXTT9=
EXTT10=
EXTT11=
PLAYORDER=
